<svg xmlns="http://www.w3.org/2000/svg" viewBox="0 0 400 300" fill="none">
  <rect width="400" height="300" rx="8" fill="#eef2ea"/>
  <rect x="20" y="20" width="360" height="260" rx="6" fill="#f7f9f5" stroke="#d5e0cc" stroke-width="2"/>

  <!-- Code lines -->
  <rect x="40" y="50" width="120" height="12" rx="2" fill="#9caf88" opacity="0.6"/>
  <rect x="40" y="70" width="200" height="12" rx="2" fill="#b8c9a8" opacity="0.5"/>
  <rect x="40" y="90" width="160" height="12" rx="2" fill="#b8c9a8" opacity="0.5"/>

  <!-- Result box -->
  <rect x="40" y="120" width="320" height="80" rx="4" fill="#d4e4c9" opacity="0.4"/>
  <rect x="50" y="130" width="100" height="10" rx="2" fill="#7a8f68" opacity="0.6"/>
  <rect x="50" y="145" width="280" height="8" rx="2" fill="#8a9a7a" opacity="0.4"/>
  <rect x="50" y="158" width="240" height="8" rx="2" fill="#8a9a7a" opacity="0.4"/>
  <rect x="50" y="171" width="260" height="8" rx="2" fill="#8a9a7a" opacity="0.4"/>

  <!-- More code -->
  <rect x="40" y="220" width="180" height="12" rx="2" fill="#b8c9a8" opacity="0.5"/>
  <rect x="40" y="240" width="140" height="12" rx="2" fill="#9caf88" opacity="0.6"/>

  <!-- Play button hint -->
  <circle cx="350" cy="50" r="15" fill="#7a8f68" opacity="0.3"/>
  <polygon points="346,43 346,57 358,50" fill="#7a8f68" opacity="0.5"/>
</svg>
